<?xml version="1.0" encoding="UTF-8"?>
<svg data-bbox="0.5 1.81 373 325.097" viewBox="0 0 374.03 327.34" xmlns="http://www.w3.org/2000/svg" data-type="ugc">
    <g>
        <path d="M86.64 64.25L187.35 123l.53-.3-11.36-6.56-11.6-6.7-11.59-6.69-11.6-6.7-11.6-6.69-11.59-6.7-11.6-6.69-11.59-6.69-8.71-5.03z"/>
        <path d="M188.19 22.03l9.14 5.27 11.65 6.73 4.08 2.36-4.08 2.32-11.65 6.64-11.63 6.63-11.61 6.62-11.63 6.61-11.59 6.61-9.1 5.18-9.12-5.27-11.64-6.64-4.06-2.34 4-2.3 11.58-6.61 11.6-6.63 11.6-6.63 11.62-6.63 11.63-6.65 9.15-5.22m0-5.77l-11.64 6.65-11.63 6.64-11.62 6.64-11.6 6.63-11.6 6.62-11.55 6.6-11.57 6.61 11.59 6.7 11.6 6.69 11.6 6.7 11.59-6.6 11.6-6.61 11.62-6.61 11.67-6.65 11.63-6.63 11.6-6.6 11.65-6.63-11.63-6.72-11.65-6.73-11.6-6.75z"/>
        <path d="M234.69 48.9l9.17 5.29 11.64 6.72 4.06 2.35-4.08 2.32-11.67 6.62-11.62 6.62-11.64 6.6-11.64 6.61-10.46 5.94-1.15.65-9.11 5.17-9.12-5.27-11.6-6.69-4.05-2.34 4-2.28 10.45-5.95 1.15-.65 11.6-6.62 11.64-6.61 10.48-6 1.15-.65 11.63-6.64 9.17-5.22m0-5.77l-11.66 6.64-11.65 6.63L199.75 63l-11.63 6.61-11.61 6.62-11.6 6.6-11.6 6.6 11.61 6.7 11.6 6.69 11.6 6.7 11.61-6.58 11.61-6.6 11.64-6.6 11.64-6.61 11.65-6.61 11.67-6.63 11.68-6.63-11.63-6.71-11.64-6.72-11.64-6.74z"/>
        <path d="M188.91 1.81L83.18 62.23l.59.34 11.54-6.6 11.57-6.61 11.58-6.62 11.59-6.63 11.6-6.63 11.61-6.64 23.26-13.3 11.64-6.66 11.65 6.72 11.64 6.72 11.65 6.73 11.64 6.72 11.65 6.72 11.64 6.73 11.65 6.72 11.64 6.72 11.01 6.35.76-.43L188.91 1.81z"/>
        <path d="M188.19 2.88L83.77 62.57 187.35 123l105-60zm-81.24 59.79l81.24-46.41 34.91 20.16-81.36 46.34zm46.39 26.79l81.37-46.37 34.92 20.16-81.51 46.26z" stroke-width="5" stroke="#000000" stroke-miterlimit="10"/>
        <path stroke-width="5" stroke="#000000" stroke-miterlimit="10" d="M77.07 194.85l.54-120.7 104.15 60.75v121.01l-11.59-6.81V141.59l-34.7-20.25V228.7l-11.55-6.79V114.6L89.35 94.43v107.16l-12.28-6.74h0z"/>
        <path stroke-width="5" stroke="#000000" stroke-miterlimit="10" d="M299.31 74.19l-103.9 60.57v67.23l92.4-54.11v40.18l-92.4 54.27v13.44l103.9-61.08v-66.94l-92.32 54.01v-40.31l92.32-53.87V74.19h0z"/>
        <path d="M.5 304.77v-2.12h6.08v2.66h-.64zm6.08 18.68v2.64H.5v-2.1l5.44-.54zm-3.56-9.43c0-3.78 0-7.59-.11-11.37h7.2c-.11 3.7-.11 7.52-.11 11.37v.72c0 3.82 0 7.6.11 11.38h-7.2c.11-3.71.11-7.49.11-11.34zm3.56-1.22h4.07c2.52 0 3.75-1.51 3.75-4.18 0-2.41-1.09-3.74-3.57-3.74H6.58v-2.23h6.05c6.55 0 8.6 2.37 8.6 5.43 0 2.63-1.54 4.83-7.77 5.55v-.33c6.66.36 9.25 2.52 9.25 6.16 0 2.91-2 6.66-11.81 6.66H6.58v-2.24h4.25c2.81 0 4.61-1.51 4.61-4.5 0-3.24-1.51-4.57-4.54-4.57H6.58z" stroke="#000000" stroke-miterlimit="10"/>
        <path d="M23.9 304.77v-2.12h6.08v2.66h-.64zm6.08 18.68v2.64H23.9v-2.1l5.44-.54zm-3.56-9.65c0-3.7 0-7.45-.11-11.15h7.35c-.11 3.63-.11 7.38-.11 11.15v1.12c0 3.74 0 7.49.11 11.2h-7.35c.11-3.64.11-7.38.11-11.16zm11.88-11.15l3 2.12H29.98v-2.12h12.5l.25 6.12h-3.39zm-.47 12.44h-7.85v-2.3h7.85zm5.62 4.9l-.26 6.1H29.98V324h12l-3 2.09 1-6.12zm-6.7-6.48l.54-3.31h2.27v7.45h-2.27l-.54-3.49z" stroke="#000000" stroke-miterlimit="10"/>
        <path d="M56.73 321.51c0-1.73-.75-2.52-2.55-3.39l-1.59-.75c-4.46-2.13-6.87-4.28-6.87-8.39 0-4.39 3.49-7.05 9.28-7.05a14 14 0 0 1 7.17 1.8l-.33 5.18H58.1l-.83-5.44 3.13 1v1.8c-2-1.26-3.34-2.06-5.18-2.06a3.09 3.09 0 0 0-3.24 3c0 1.76 1 2.62 3 3.56l1.8.86c4.54 2.16 6.44 4.11 6.44 7.85 0 4.25-3.13 7.42-9.75 7.42a16.44 16.44 0 0 1-8.14-1.88l.22-5.47h3.82l.93 5.94-2.95-.83v-1.72a13.34 13.34 0 0 0 6.16 1.69 3 3 0 0 0 3.22-3.12z" stroke="#000000" stroke-miterlimit="10"/>
        <path d="M65.34 304.77l3-2.12-.86 6.8H64.1l.07-6.8h21.7v6.8h-3.35l-.86-6.8 2.95 2.12zm10.54 18.68l5.58.54v2.1H68.54v-2.1l5.44-.54zm-4.46-9.65c0-3.7 0-7.45-.11-11.15h7.34c-.1 3.63-.1 7.38-.1 11.15v1.12c0 3.74 0 7.49.1 11.2h-7.34c.11-3.64.11-7.38.11-11.16z" stroke="#000000" stroke-miterlimit="10"/>
        <path d="M94.39 323.99l4.35-.54h1.16l3.56.54v2.1h-9.07zm.43-21.34h5.29l.07 2.66h-.64l-4.72-.54zm3.13 0h2.24l.25 13.13v10.31h-2.52zm.29 0h7.24l5.57 15.94h-1.18l5.25-15.94h2.56l-7.89 23.44h-3.16zm14.79 21.34l4.72-.54h2l5.43.54v2.1h-12.15zm2.52-8l.18-13.35h7.06c-.11 3.7-.11 7.45-.11 11.15v1.16c0 3.78 0 7.52.11 11.16h-7.34c.1-3.7.07-7.45.1-10.11zm3.57-13.35h5.9v2.12l-5.25.54h-.65z" stroke="#000000" stroke-miterlimit="10"/>
        <path d="M150 314.38c0 8.46-5.5 12.46-11.59 12.46s-11.59-4-11.59-12.46 5.55-12.45 11.59-12.45S150 305.92 150 314.38zm-11.59 10.26c3.06 0 4.22-4.07 4.22-10.26s-1.16-10.29-4.22-10.29-4.22 4.14-4.22 10.29 1.16 10.26 4.22 10.26z" stroke="#000000" stroke-miterlimit="10"/>
        <path d="M150.66 323.99l4.35-.54h1.18l3.57.54v2.1h-9.07zm.43-21.34h5.29l.07 2.66h-.65l-4.71-.54zm3.13 0h2.27l.25 13.13v10.31h-2.55zm.29 0h7.23l5.58 15.94h-1.19l5.26-15.94h2.56l-7.89 23.44h-3.16zm14.79 21.34l4.72-.54h2l5.44.54v2.1H169.3zm2.52-8l.18-13.35h7.06c-.11 3.7-.11 7.45-.11 11.15v1.16c0 3.78 0 7.52.11 11.16h-7.35c.11-3.7.08-7.45.11-10.11zm3.57-13.35h5.9v2.12l-5.26.54h-.64z" stroke="#000000" stroke-miterlimit="10"/>
        <path d="M183.45 304.77v-2.12h6.09v2.66h-.65zm6.09 18.68v2.64h-6.09v-2.1l5.44-.54zm-3.57-9.65c0-3.7 0-7.45-.11-11.15h7.33c-.11 3.63-.11 7.38-.11 11.15v1.12c0 3.74 0 7.49.11 11.2h-7.35c.11-3.64.11-7.38.11-11.16zm11.88-11.15l3 2.12h-11.3v-2.12h12.49l.25 6.12h-3.4zm-.47 12.44h-7.84v-2.3h7.84zm5.62 4.9l-.26 6.12h-13.2v-2.09h12l-3 2.09 1-6.12zm-6.7-6.48l.54-3.31h2.27v7.45h-2.27l-.54-3.49z" stroke="#000000" stroke-miterlimit="10"/>
        <path d="M206.31 303.98l2 1.08-3.75-.25v-2.16h9.18l12.13 16.63v6.81h-3.78zm-1.73 20l3.85-.54h1.16l4.82.54v2.11h-9.83zm3.06-21.34l2.52 2.16v21.29h-2.52zm11.49 0h9.82v2.12l-3.67.54h-1.09l-5-.54zm4.24 0h2.52v23.45l-2.52-2.52z" stroke="#000000" stroke-miterlimit="10"/>
        <path d="M231.8 304.77l3-2.12-.87 6.8h-3.38l.07-6.8h21.71v6.8h-3.35l-.86-6.8 2.95 2.12zm10.55 18.68l5.57.54v2.1H235v-2.1l5.44-.54zm-4.47-9.65c0-3.7 0-7.45-.11-11.15h7.35c-.11 3.63-.11 7.38-.11 11.15v1.12c0 3.74 0 7.49.11 11.2h-7.35c.11-3.64.11-7.38.11-11.16z" stroke="#000000" stroke-miterlimit="10"/>
        <path d="M265.28 321.51c0-1.73-.76-2.52-2.56-3.39l-1.58-.75c-4.47-2.13-6.88-4.28-6.88-8.39 0-4.39 3.49-7.05 9.29-7.05a14 14 0 0 1 7.16 1.8l-.32 5.18h-3.74l-.83-5.44 3.13 1v1.8c-2-1.26-3.35-2.06-5.18-2.06a3.09 3.09 0 0 0-3.25 3c0 1.76 1 2.62 3 3.56l1.8.86c4.53 2.16 6.44 4.11 6.44 7.85 0 4.25-3.13 7.42-9.75 7.42a16.42 16.42 0 0 1-8.14-1.88l.22-5.47h3.81l.94 5.94-2.95-.83v-1.72a13.3 13.3 0 0 0 6.15 1.69 3 3 0 0 0 3.24-3.12z" stroke="#000000" stroke-miterlimit="10"/>
        <path d="M292.6 321.51c0-1.73-.75-2.52-2.55-3.39l-1.59-.75c-4.46-2.13-6.87-4.28-6.87-8.39 0-4.39 3.49-7.05 9.28-7.05a14 14 0 0 1 7.17 1.8l-.33 5.18h-3.74l-.83-5.44 3.13 1v1.8c-2-1.26-3.34-2.06-5.18-2.06a3.09 3.09 0 0 0-3.24 3c0 1.76 1 2.62 2.95 3.56l1.8.86c4.54 2.16 6.44 4.11 6.44 7.85 0 4.25-3.13 7.42-9.75 7.42a16.44 16.44 0 0 1-8.14-1.88l.22-5.47h3.82l.93 5.94-2.95-.83v-1.72a13.34 13.34 0 0 0 6.16 1.69 3 3 0 0 0 3.27-3.12z" stroke="#000000" stroke-miterlimit="10"/>
        <path d="M300.95 304.77v-2.12h11.85v2.12l-5.47.54h-1.14zm6.38 18.68l5.47.54v2.1h-11.85v-2.1l5.19-.54zm-3.93-9.65c0-3.7 0-7.45-.11-11.15h7.35c-.11 3.63-.11 7.38-.11 11.15v1.12c0 3.74 0 7.49.11 11.2h-7.35c.11-3.64.11-7.38.11-11.16zm3.57 1.37v-2.26h13.22v2.26zm7.34-10.4v-2.12h11.88v2.12l-5.36.54h-1.12zm6.48 18.68l5.36.54v2.1h-11.84v-2.1l5.36-.54zm-4.21-9.65c0-3.7 0-7.45-.11-11.15h7.34c-.11 3.63-.11 7.38-.11 11.15v1.16c0 3.7 0 7.45.11 11.16h-7.34c.11-3.64.11-7.38.11-11.2z" stroke="#000000" stroke-miterlimit="10"/>
        <path d="M350.99 314.38c0 8.46-5.51 12.46-11.59 12.46s-11.59-4-11.59-12.46 5.54-12.45 11.59-12.45 11.59 3.99 11.59 12.45zm-11.59 10.26c3.06 0 4.21-4.07 4.21-10.26s-1.15-10.29-4.21-10.29-4.21 4.14-4.21 10.29 1.15 10.26 4.21 10.26z" stroke="#000000" stroke-miterlimit="10"/>
        <path d="M352.65 304.77v-2.12h6.08v2.66h-.64zm7.45 18.68l5.44.54v2.1h-12.89v-2.1l5.44-.54zm-4.91-9.65c0-3.7 0-7.45-.11-11.15h7.35c-.11 3.63-.11 7.38-.11 11.15v2.2c0 2.66 0 6.41.11 10.12h-7.35c.11-3.64.11-7.38.11-11.16zm7.78 3.46h-4.22v-2.17h4.07c2.7 0 4.21-2.16 4.21-5.4s-1.69-4.82-4.35-4.82h-3.93v-2.23h3.75c8.1 0 11 2.77 11 7.09.03 4.15-2.56 7.53-10.55 7.53z" stroke="#000000" stroke-miterlimit="10"/>
    </g>
</svg>
