<?xml version="1.0" encoding="utf-8"?>
<!-- Generator: Adobe Illustrator 18.0.0, SVG Export Plug-In . SVG Version: 6.00 Build 0)  -->
<!DOCTYPE svg PUBLIC "-//W3C//DTD SVG 1.1//EN" "http://www.w3.org/Graphics/SVG/1.1/DTD/svg11.dtd">
<svg version="1.1" id="image" xmlns="http://www.w3.org/2000/svg" xmlns:xlink="http://www.w3.org/1999/xlink" x="0px" y="0px"
	 viewBox="0 0 600 400.8" enable-background="new 0 0 600 400.8" xml:space="preserve">
<g id="color_bulb">
	<g>
		<rect x="298" y="370" fill="#FFAE00" width="4" height="18.9"/>
		<polygon fill="#FF709C" points="268.5,357.1 266,354 251.1,365.8 253.6,368.9 		"/>
		<polygon fill="#A3CF1B" points="334.9,354 332.4,357.1 347.3,368.9 349.8,365.8 		"/>
		<rect x="338.9" y="312.2" fill="#009993" width="19.1" height="3.9"/>
		<rect x="242" y="312.2" fill="#9933CC" width="19.1" height="3.9"/>
	</g>
	<g>
		<path fill="#75A637" d="M329.4,332.2c-0.1,0.3-0.1,0.6-0.2,0.9l-12.7-13.7l11.2-3.1c0,0,0,0.1,0,0.1c1.4,3.4,2.2,6.8,2.2,9.9
			C329.9,328.3,329.7,330.3,329.4,332.2z"/>
		<path fill="#FF709C" d="M270.1,325.9c0.1-4.6,1.6-9.5,4.6-14.6l2.6,18.2L270.1,325.9z"/>
		<path fill="#FFD626" d="M328.4,335.9c-0.6,1.8-1.3,3.6-2.2,5.3c-0.5,0.9-1,1.7-1.5,2.5l-13.4-11.3l17.8,0.9
			C328.9,334.3,328.7,335.1,328.4,335.9z"/>
		<path fill="#D6BA00" d="M329.1,333.4l-17.8-0.9l5.2-13.2l12.7,13.7C329.2,333.2,329.2,333.3,329.1,333.4z"/>
		<path fill="#9900CC" d="M292.2,310.9l-8.3-11.5c0.1-0.1,0.2-0.3,0.4-0.4l0.3-0.3l11.8-1.3L292.2,310.9z"/>
		<path fill="#FF3A6B" d="M272.4,338.1c-1.4-3.7-2.3-7.7-2.3-11.9c0-0.1,0-0.2,0-0.4l7.2,3.7L272.4,338.1z"/>
		<path fill="#FFAE00" d="M324.7,343.8c-1.7,2.6-3.8,4.9-6.1,6.9l-7.3-18.1L324.7,343.8z"/>
		<path fill="#FF709C" d="M297,357.3c-5.1-0.5-9.8-2.4-13.9-5.3l12.1-8.7L297,357.3z"/>
		<path fill="#9CBF31" d="M327.8,316.2l-11.2,3.1l4.9-13.7c0.8,1.1,1.6,2.2,2.4,3.3l3.9,7.1C327.7,316.1,327.7,316.2,327.8,316.2z"
			/>
		<polygon fill="#FFD729" points="298.7,320.4 316.5,319.3 311.3,332.5 		"/>
		<polygon fill="#B81237" points="298.7,320.4 295.2,343.3 277.3,329.5 		"/>
		<path fill="#FF3A6B" d="M277.3,329.5l-2.6-18.2c0.3-0.6,0.7-1.2,1.1-1.7l16.4,1.3L277.3,329.5z"/>
		<path fill="#B22ED9" d="M275.8,309.6c2.1-3.3,4.9-6.7,8.2-10.2l8.3,11.5L275.8,309.6z"/>
		<path fill="#CF2543" d="M295.2,343.3l-21.7-2.7c-0.4-0.8-0.8-1.7-1.1-2.5l4.9-8.6L295.2,343.3z"/>
		<path fill="#FF3A6B" d="M283.1,352c-4-2.9-7.4-6.8-9.6-11.3l21.7,2.7L283.1,352z"/>
		<path fill="#A3CF1B" d="M308.3,308.7l7.7-9.4c0.1,0.1,0.2,0.2,0.3,0.3l0.3,19.8l-17.8,1L308.3,308.7z"/>
		<path fill="#D47300" d="M318.6,350.6c-2.6,2.1-5.5,3.8-8.6,5l1.3-23.1L318.6,350.6z"/>
		<polygon fill="#D62746" points="292.2,310.9 298.7,320.4 277.3,329.5 		"/>
		<polygon fill="#9933CC" points="296.3,297.4 298.7,320.4 292.2,310.9 		"/>
		<path fill="#00A3B3" d="M296.3,297.4l19.2,1.5l0.1,0.1c0.1,0.1,0.2,0.2,0.3,0.3l-7.7,9.4L296.3,297.4z"/>
		<path fill="#F68600" d="M310,355.6c-0.1,0-0.3,0.1-0.4,0.1l-14.4-12.5l16.1-10.8L310,355.6z"/>
		<path fill="#75A637" d="M321.4,305.7l-4.9,13.7l-0.3-19.8C318.2,301.7,319.9,303.7,321.4,305.7z"/>
		<polygon fill="#CD4527" points="311.3,332.5 295.2,343.3 298.7,320.4 		"/>
		<path fill="#FFAE00" d="M297,357.3l-1.8-14l14.4,12.5c-0.9,0.3-1.8,0.6-2.8,0.8l-4.2,0.7c-0.9,0.1-1.7,0.1-2.6,0.1
			C299,357.4,298,357.4,297,357.3z"/>
		<path fill="#005B5B" d="M290.9,286.5h6.1l-12.1,11v-6.8c0,0,0-1.3,0-1.7c0-0.4,0.2-1,0.5-1.6C286.1,286.3,287.9,286.5,290.9,286.5
			z"/>
		<polygon fill="#009993" points="284.6,298.7 284.9,298.3 284.9,297.5 297,286.5 297,286.5 296.3,297.4 		"/>
		<polygon fill="#007D7D" points="297,286.5 297,286.5 315,298.1 315,298.3 315.5,298.9 296.3,297.4 		"/>
		<path fill="#005B5B" d="M315,290.5v7.6l-18-11.6h0.8l15.6,0.2C314.6,287.1,315,288,315,290.5z"/>
		<polygon fill="#9900CC" points="308.3,308.7 298.7,320.4 296.3,297.4 		"/>
	</g>
	<g>
		<path fill="#333333" d="M288.8,273.8h22.4c1.1,0,2,0.9,2,2l0,0c0,1.1-0.9,2-2,2h-22.4c-1.1,0-2-0.9-2-2l0,0
			C286.8,274.7,287.7,273.8,288.8,273.8z"/>
		<path fill="#333333" d="M310.4,271.7c-0.3-3.2-4.8-5.7-10.4-5.7c-5.5,0-10.1,2.5-10.4,5.7H310.4z"/>
		<path fill="#333333" d="M288.3,280h23.4c1.1,0,2,0.9,2,2l0,0c0,1.1-0.9,2-2,2h-23.4c-1.1,0-2-0.9-2-2l0,0
			C286.3,280.9,287.2,280,288.3,280z"/>
	</g>
	<rect x="298.3" y="0" fill="#333333" width="3.5" height="266.2"/>
</g>
<g id="grey_bulbs">
	<g>
		<g>
			<path fill="#898989" d="M234.7,201.3c-0.1,0.3-0.1,0.6-0.2,0.9l-12.7-13.8l11.2-3.1c0,0,0,0,0,0.1c1.4,3.5,2.2,6.8,2.2,10
				C235.3,197.3,235.1,199.4,234.7,201.3z"/>
			<path fill="#737373" d="M175.4,194.9c0.1-4.6,1.6-9.5,4.6-14.7l2.6,18.4L175.4,194.9z"/>
			<path fill="#B2B2B2" d="M233.8,205.1c-0.6,1.9-1.3,3.6-2.2,5.3c-0.5,0.9-1,1.7-1.5,2.6l-13.4-11.3l17.8,0.9
				C234.3,203.4,234,204.2,233.8,205.1z"/>
			<path fill="#CFCFCF" d="M234.5,202.5l-17.8-0.9l5.2-13.3l12.7,13.8C234.5,202.3,234.5,202.4,234.5,202.5z"/>
			<path fill="#3F3F3F" d="M197.5,179.8l-8.3-11.6c0.1-0.1,0.2-0.3,0.4-0.4l0.3-0.3l11.7-1.3L197.5,179.8z"/>
			<path fill="#3F3F3F" d="M177.7,207.3c-1.5-3.7-2.3-7.8-2.3-12c0-0.1,0-0.2,0-0.4l7.2,3.7L177.7,207.3z"/>
			<path fill="#737373" d="M230.1,213c-1.7,2.6-3.8,4.9-6.1,6.9l-7.3-18.2L230.1,213z"/>
			<path fill="#898989" d="M202.3,226.6c-5.1-0.5-9.8-2.4-13.9-5.3l12.1-8.7L202.3,226.6z"/>
			<path fill="#565656" d="M233.1,185.2l-11.2,3.1l4.9-13.7c0.8,1.1,1.6,2.2,2.4,3.3l3.9,7.1C233,185.1,233.1,185.2,233.1,185.2z"/>
			<polygon fill="#898989" points="204,189.4 221.9,188.4 216.7,201.7 			"/>
			<polygon fill="#B2B2B2" points="204,189.4 200.5,212.5 182.6,198.6 			"/>
			<path fill="#ADADAD" d="M182.6,198.6l-2.6-18.4c0.3-0.6,0.7-1.2,1.1-1.7l16.4,1.3L182.6,198.6z"/>
			<path fill="#737373" d="M181.1,178.5c2.1-3.3,4.9-6.8,8.2-10.3l8.3,11.6L181.1,178.5z"/>
			<path fill="#737373" d="M200.5,212.5l-21.7-2.7c-0.4-0.8-0.8-1.7-1.1-2.5l4.9-8.7L200.5,212.5z"/>
			<path fill="#898989" d="M188.5,221.2c-4-2.9-7.4-6.8-9.6-11.4l21.7,2.7L188.5,221.2z"/>
			<path fill="#737373" d="M213.6,177.6l7.7-9.5c0.1,0.1,0.2,0.2,0.3,0.3l0.3,19.9l-17.8,1L213.6,177.6z"/>
			<path fill="#ADADAD" d="M224,219.9c-2.6,2.2-5.5,3.9-8.6,5l1.3-23.3L224,219.9z"/>
			<polygon fill="#565656" points="197.5,179.8 204,189.4 182.6,198.6 			"/>
			<polygon fill="#ADADAD" points="201.7,166.2 204,189.4 197.5,179.8 			"/>
			<path fill="#3F3F3F" d="M201.7,166.2l19.2,1.5l0.1,0.1c0.1,0.1,0.2,0.2,0.3,0.3l-7.7,9.5L201.7,166.2z"/>
			<path fill="#737373" d="M215.3,224.9c-0.1,0.1-0.3,0.1-0.4,0.1l-14.4-12.6l16.1-10.9L215.3,224.9z"/>
			<path fill="#898989" d="M226.8,174.6l-4.9,13.7l-0.3-19.9C223.5,170.6,225.3,172.6,226.8,174.6z"/>
			<polygon fill="#CFCFCF" points="216.7,201.7 200.5,212.5 204,189.4 			"/>
			<path fill="#CFCFCF" d="M202.3,226.6l-1.8-14.1l14.4,12.6c-0.9,0.3-1.8,0.6-2.8,0.8l-4.2,0.7c-0.9,0.1-1.7,0.1-2.6,0.1
				C204.3,226.7,203.3,226.7,202.3,226.6z"/>
			<path fill="#737373" d="M196.3,155.3h6l-12.1,11.1v-6.9c0,0,0-1.3,0.1-1.7c0-0.4,0.2-1.1,0.5-1.6
				C191.5,155.1,193.2,155.3,196.3,155.3z"/>
			<polygon fill="#ADADAD" points="189.9,167.5 190.2,167.2 190.2,166.4 202.3,155.3 202.3,155.3 201.7,166.2 			"/>
			<polygon fill="#565656" points="202.3,155.3 202.3,155.3 220.3,167 220.3,167.2 220.9,167.7 201.7,166.2 			"/>
			<path fill="#737373" d="M220.3,159.4v7.7l-18-11.7h0.8l15.6,0.2C219.9,155.9,220.3,156.8,220.3,159.4z"/>
			<polygon fill="#CFCFCF" points="213.6,177.6 204,189.4 201.7,166.2 			"/>
		</g>
		<g>
			<path fill="#333333" d="M194.2,142.6h22.4c1.1,0,2,0.9,2,2l0,0c0,1.1-0.9,2-2,2h-22.4c-1.1,0-2-0.9-2-2l0,0
				C192.2,143.4,193.1,142.6,194.2,142.6z"/>
			<path fill="#333333" d="M215.7,140.5c-0.3-3.2-4.8-5.7-10.4-5.7c-5.5,0-10.1,2.5-10.4,5.7H215.7z"/>
			<path fill="#333333" d="M193.6,148.7h23.4c1.1,0,2,0.9,2,2l0,0c0,1.1-0.9,2-2,2h-23.4c-1.1,0-2-0.9-2-2l0,0
				C191.7,149.6,192.5,148.7,193.6,148.7z"/>
		</g>
		<rect x="203.6" y="0" fill="#333333" width="3.5" height="135"/>
	</g>
	<g>
		<g>
			<path fill="#ADADAD" d="M518.7,201.3c-0.1,0.3-0.1,0.6-0.2,0.9l-12.7-13.8l11.2-3.1c0,0,0,0,0,0.1c1.4,3.5,2.2,6.8,2.2,10
				C519.2,197.3,519,199.4,518.7,201.3z"/>
			<path fill="#B2B2B2" d="M459.4,194.9c0.1-4.6,1.6-9.5,4.6-14.7l2.6,18.4L459.4,194.9z"/>
			<path fill="#737373" d="M517.7,205.1c-0.6,1.9-1.3,3.6-2.2,5.3c-0.5,0.9-1,1.7-1.5,2.6l-13.4-11.3l17.8,0.9
				C518.2,203.4,518,204.2,517.7,205.1z"/>
			<path fill="#3F3F3F" d="M518.4,202.5l-17.8-0.9l5.2-13.3l12.7,13.8C518.5,202.3,518.4,202.4,518.4,202.5z"/>
			<path fill="#565656" d="M481.5,179.8l-8.3-11.6c0.1-0.1,0.2-0.3,0.4-0.4l0.3-0.3l11.7-1.3L481.5,179.8z"/>
			<path fill="#CFCFCF" d="M461.7,207.3c-1.5-3.7-2.3-7.8-2.3-12c0-0.1,0-0.2,0-0.4l7.2,3.7L461.7,207.3z"/>
			<path fill="#ADADAD" d="M514,213c-1.7,2.6-3.8,4.9-6.1,6.9l-7.3-18.2L514,213z"/>
			<path fill="#CFCFCF" d="M486.3,226.6c-5.1-0.5-9.8-2.4-13.9-5.3l12.1-8.7L486.3,226.6z"/>
			<path fill="#737373" d="M517,185.2l-11.2,3.1l4.9-13.7c0.8,1.1,1.6,2.2,2.4,3.3l3.9,7.1C517,185.1,517,185.2,517,185.2z"/>
			<polygon fill="#565656" points="488,189.4 505.8,188.4 500.6,201.7 			"/>
			<polygon fill="#898989" points="488,189.4 484.5,212.5 466.6,198.6 			"/>
			<path fill="#565656" d="M466.6,198.6l-2.6-18.4c0.3-0.6,0.7-1.2,1.1-1.7l16.4,1.3L466.6,198.6z"/>
			<path fill="#ADADAD" d="M465.1,178.5c2.1-3.3,4.9-6.8,8.2-10.3l8.3,11.6L465.1,178.5z"/>
			<path fill="#737373" d="M484.5,212.5l-21.7-2.7c-0.4-0.8-0.8-1.7-1.1-2.5l4.9-8.7L484.5,212.5z"/>
			<path fill="#898989" d="M472.4,221.2c-4-2.9-7.4-6.8-9.6-11.4l21.7,2.7L472.4,221.2z"/>
			<path fill="#898989" d="M497.5,177.6l7.7-9.5c0.1,0.1,0.2,0.2,0.3,0.3l0.3,19.9l-17.8,1L497.5,177.6z"/>
			<path fill="#737373" d="M507.9,219.9c-2.6,2.2-5.5,3.9-8.6,5l1.3-23.3L507.9,219.9z"/>
			<polygon fill="#CFCFCF" points="481.5,179.8 488,189.4 466.6,198.6 			"/>
			<polygon fill="#B2B2B2" points="485.6,166.2 488,189.4 481.5,179.8 			"/>
			<path fill="#CFCFCF" d="M485.6,166.2l19.2,1.5l0.1,0.1c0.1,0.1,0.2,0.2,0.3,0.3l-7.7,9.5L485.6,166.2z"/>
			<path fill="#CFCFCF" d="M499.3,224.9c-0.1,0.1-0.3,0.1-0.4,0.1l-14.4-12.6l16.1-10.9L499.3,224.9z"/>
			<path fill="#3F3F3F" d="M510.7,174.6l-4.9,13.7l-0.3-19.9C507.5,170.6,509.2,172.6,510.7,174.6z"/>
			<polygon fill="#B2B2B2" points="500.6,201.7 484.5,212.5 488,189.4 			"/>
			<path fill="#B2B2B2" d="M486.3,226.6l-1.8-14.1l14.4,12.6c-0.9,0.3-1.8,0.6-2.8,0.8l-4.2,0.7c-0.9,0.1-1.7,0.1-2.6,0.1
				C488.3,226.7,487.3,226.7,486.3,226.6z"/>
			<path fill="#ADADAD" d="M480.2,155.3h6l-12.1,11.1v-6.9c0,0,0-1.3,0.1-1.7c0-0.4,0.2-1.1,0.5-1.6
				C475.4,155.1,477.1,155.3,480.2,155.3z"/>
			<polygon fill="#B2B2B2" points="473.9,167.5 474.2,167.2 474.2,166.4 486.3,155.3 486.3,155.3 485.6,166.2 			"/>
			<polygon fill="#737373" points="486.3,155.3 486.3,155.3 504.3,167 504.3,167.2 504.8,167.7 485.6,166.2 			"/>
			<path fill="#B2B2B2" d="M504.3,159.4v7.7l-18-11.7h0.8l15.6,0.2C503.9,155.9,504.3,156.8,504.3,159.4z"/>
			<polygon fill="#565656" points="497.5,177.6 488,189.4 485.6,166.2 			"/>
		</g>
		<g>
			<path fill="#333333" d="M478.1,142.6h22.4c1.1,0,2,0.9,2,2l0,0c0,1.1-0.9,2-2,2h-22.4c-1.1,0-2-0.9-2-2l0,0
				C476.1,143.4,477,142.6,478.1,142.6z"/>
			<path fill="#333333" d="M499.7,140.5c-0.3-3.2-4.8-5.7-10.4-5.7c-5.5,0-10.1,2.5-10.4,5.7H499.7z"/>
			<path fill="#333333" d="M477.6,148.7H501c1.1,0,2,0.9,2,2l0,0c0,1.1-0.9,2-2,2h-23.4c-1.1,0-2-0.9-2-2l0,0
				C475.6,149.6,476.5,148.7,477.6,148.7z"/>
		</g>
		<rect x="487.6" y="0" fill="#333333" width="3.5" height="135"/>
	</g>
	<g>
		<g>
			<path fill="#CFCFCF" d="M140.1,147.2c-0.1,0.3-0.1,0.6-0.2,0.9l-12.7-13.8l11.2-3.1c0,0,0,0,0,0.1c1.4,3.5,2.2,6.8,2.2,10
				C140.6,143.3,140.4,145.3,140.1,147.2z"/>
			<path fill="#3F3F3F" d="M80.8,140.8c0.1-4.6,1.6-9.5,4.6-14.7l2.6,18.4L80.8,140.8z"/>
			<path fill="#B2B2B2" d="M139.1,151c-0.6,1.9-1.3,3.6-2.2,5.3c-0.5,0.9-1,1.7-1.5,2.6L122,147.6l17.8,0.9
				C139.6,149.3,139.4,150.2,139.1,151z"/>
			<path fill="#737373" d="M139.8,148.4l-17.8-0.9l5.2-13.3l12.7,13.8C139.9,148.2,139.8,148.3,139.8,148.4z"/>
			<path fill="#898989" d="M102.9,125.7l-8.3-11.6c0.1-0.1,0.2-0.3,0.4-0.4l0.3-0.3l11.7-1.3L102.9,125.7z"/>
			<path fill="#565656" d="M83.1,153.2c-1.5-3.7-2.3-7.8-2.3-12c0-0.1,0-0.2,0-0.4l7.2,3.7L83.1,153.2z"/>
			<path fill="#CFCFCF" d="M135.4,158.9c-1.7,2.6-3.8,4.9-6.1,6.9l-7.3-18.2L135.4,158.9z"/>
			<path fill="#B2B2B2" d="M107.7,172.5c-5.1-0.5-9.8-2.4-13.9-5.3l12.1-8.7L107.7,172.5z"/>
			<path fill="#898989" d="M138.4,131.1l-11.2,3.1l4.9-13.7c0.8,1.1,1.6,2.2,2.4,3.3l3.9,7.1C138.4,131,138.4,131.1,138.4,131.1z"/>
			<polygon fill="#ADADAD" points="109.4,135.3 127.2,134.3 122,147.6 			"/>
			<polygon fill="#ADADAD" points="109.4,135.3 105.9,158.4 88,144.5 			"/>
			<path fill="#898989" d="M88,144.5l-2.6-18.4c0.3-0.6,0.7-1.2,1.1-1.7l16.4,1.3L88,144.5z"/>
			<path fill="#CFCFCF" d="M86.5,124.4c2.1-3.3,4.9-6.8,8.2-10.3l8.3,11.6L86.5,124.4z"/>
			<path fill="#898989" d="M105.9,158.4l-21.7-2.7c-0.4-0.8-0.8-1.7-1.1-2.5l4.9-8.7L105.9,158.4z"/>
			<path fill="#565656" d="M93.8,167.2c-4-2.9-7.4-6.8-9.6-11.4l21.7,2.7L93.8,167.2z"/>
			<path fill="#737373" d="M118.9,123.5l7.7-9.5c0.1,0.1,0.2,0.2,0.3,0.3l0.3,19.9l-17.8,1L118.9,123.5z"/>
			<path fill="#ADADAD" d="M129.3,165.8c-2.6,2.2-5.5,3.9-8.6,5l1.3-23.3L129.3,165.8z"/>
			<polygon fill="#737373" points="102.9,125.7 109.4,135.3 88,144.5 			"/>
			<polygon fill="#565656" points="107,112.1 109.4,135.3 102.9,125.7 			"/>
			<path fill="#565656" d="M107,112.1l19.2,1.5l0.1,0.1c0.1,0.1,0.2,0.2,0.3,0.3l-7.7,9.5L107,112.1z"/>
			<path fill="#898989" d="M120.7,170.8c-0.1,0.1-0.3,0.1-0.4,0.1l-14.4-12.6l16.1-10.9L120.7,170.8z"/>
			<path fill="#3F3F3F" d="M132.1,120.5l-4.9,13.7l-0.3-19.9C128.9,116.5,130.6,118.5,132.1,120.5z"/>
			<polygon fill="#565656" points="122,147.6 105.9,158.4 109.4,135.3 			"/>
			<path fill="#CFCFCF" d="M107.7,172.5l-1.8-14.1l14.4,12.6c-0.9,0.3-1.8,0.6-2.8,0.8l-4.2,0.7c-0.9,0.1-1.7,0.1-2.6,0.1
				C109.7,172.7,108.7,172.6,107.7,172.5z"/>
			<path fill="#737373" d="M101.6,101.2h6l-12.1,11.1v-6.9c0,0,0-1.3,0.1-1.7c0-0.4,0.2-1.1,0.5-1.6
				C96.8,101,98.5,101.2,101.6,101.2z"/>
			<polygon fill="#3F3F3F" points="95.3,113.5 95.6,113.1 95.6,112.3 107.7,101.2 107.7,101.2 107,112.1 			"/>
			<polygon fill="#898989" points="107.7,101.2 107.7,101.2 125.7,112.9 125.7,113.1 126.2,113.6 107,112.1 			"/>
			<path fill="#CFCFCF" d="M125.7,105.3v7.7l-18-11.7h0.8l15.6,0.2C125.3,101.8,125.7,102.7,125.7,105.3z"/>
			<polygon fill="#B2B2B2" points="118.9,123.5 109.4,135.3 107,112.1 			"/>
		</g>
		<g>
			<path fill="#333333" d="M99.5,88.5h22.4c1.1,0,2,0.9,2,2l0,0c0,1.1-0.9,2-2,2H99.5c-1.1,0-2-0.9-2-2l0,0
				C97.5,89.4,98.4,88.5,99.5,88.5z"/>
			<path fill="#333333" d="M121.1,86.4c-0.3-3.2-4.8-5.7-10.4-5.7c-5.5,0-10.1,2.5-10.4,5.7H121.1z"/>
			<path fill="#333333" d="M99,94.7h23.4c1.1,0,2,0.9,2,2l0,0c0,1.1-0.9,2-2,2H99c-1.1,0-2-0.9-2-2l0,0C97,95.6,97.9,94.7,99,94.7z"
				/>
		</g>
		<rect x="109" y="0" fill="#333333" width="3.5" height="80.9"/>
	</g>
	<g>
		<g>
			<path fill="#737373" d="M424,147.2c-0.1,0.3-0.1,0.6-0.2,0.9l-12.7-13.8l11.2-3.1c0,0,0,0,0,0.1c1.4,3.5,2.2,6.8,2.2,10
				C424.6,143.3,424.4,145.3,424,147.2z"/>
			<path fill="#B2B2B2" d="M364.7,140.8c0.1-4.6,1.6-9.5,4.6-14.7l2.6,18.4L364.7,140.8z"/>
			<path fill="#3F3F3F" d="M423.1,151c-0.6,1.9-1.3,3.6-2.2,5.3c-0.5,0.9-1,1.7-1.5,2.6L406,147.6l17.8,0.9
				C423.6,149.3,423.3,150.2,423.1,151z"/>
			<path fill="#CFCFCF" d="M423.8,148.4l-17.8-0.9l5.2-13.3l12.7,13.8C423.8,148.2,423.8,148.3,423.8,148.4z"/>
			<path fill="#ADADAD" d="M386.8,125.7l-8.3-11.6c0.1-0.1,0.2-0.3,0.4-0.4l0.3-0.3l11.7-1.3L386.8,125.7z"/>
			<path fill="#737373" d="M367,153.2c-1.5-3.7-2.3-7.8-2.3-12c0-0.1,0-0.2,0-0.4l7.2,3.7L367,153.2z"/>
			<path fill="#898989" d="M419.4,158.9c-1.7,2.6-3.8,4.9-6.1,6.9l-7.3-18.2L419.4,158.9z"/>
			<path fill="#565656" d="M391.6,172.5c-5.1-0.5-9.8-2.4-13.9-5.3l12.1-8.7L391.6,172.5z"/>
			<path fill="#ADADAD" d="M422.4,131.1l-11.2,3.1l4.9-13.7c0.8,1.1,1.6,2.2,2.4,3.3l3.9,7.1C422.3,131,422.4,131.1,422.4,131.1z"/>
			<polygon fill="#B2B2B2" points="393.3,135.3 411.2,134.3 406,147.6 			"/>
			<polygon fill="#CFCFCF" points="393.3,135.3 389.8,158.4 371.9,144.5 			"/>
			<path fill="#565656" d="M371.9,144.5l-2.6-18.4c0.3-0.6,0.7-1.2,1.1-1.7l16.4,1.3L371.9,144.5z"/>
			<path fill="#CFCFCF" d="M370.4,124.4c2.1-3.3,4.9-6.8,8.2-10.3l8.3,11.6L370.4,124.4z"/>
			<path fill="#565656" d="M389.8,158.4l-21.7-2.7c-0.4-0.8-0.8-1.7-1.1-2.5l4.9-8.7L389.8,158.4z"/>
			<path fill="#ADADAD" d="M377.8,167.2c-4-2.9-7.4-6.8-9.6-11.4l21.7,2.7L377.8,167.2z"/>
			<path fill="#898989" d="M402.9,123.5l7.7-9.5c0.1,0.1,0.2,0.2,0.3,0.3l0.3,19.9l-17.8,1L402.9,123.5z"/>
			<path fill="#565656" d="M413.3,165.8c-2.6,2.2-5.5,3.9-8.6,5l1.3-23.3L413.3,165.8z"/>
			<polygon fill="#737373" points="386.8,125.7 393.3,135.3 371.9,144.5 			"/>
			<polygon fill="#565656" points="391,112.1 393.3,135.3 386.8,125.7 			"/>
			<path fill="#CFCFCF" d="M391,112.1l19.2,1.5l0.1,0.1c0.1,0.1,0.2,0.2,0.3,0.3l-7.7,9.5L391,112.1z"/>
			<path fill="#B2B2B2" d="M404.6,170.8c-0.1,0.1-0.3,0.1-0.4,0.1l-14.4-12.6l16.1-10.9L404.6,170.8z"/>
			<path fill="#565656" d="M416.1,120.5l-4.9,13.7l-0.3-19.9C412.8,116.5,414.6,118.5,416.1,120.5z"/>
			<polygon fill="#737373" points="406,147.6 389.8,158.4 393.3,135.3 			"/>
			<path fill="#898989" d="M391.6,172.5l-1.8-14.1l14.4,12.6c-0.9,0.3-1.8,0.6-2.8,0.8l-4.2,0.7c-0.9,0.1-1.7,0.1-2.6,0.1
				C393.6,172.7,392.6,172.6,391.6,172.5z"/>
			<path fill="#CFCFCF" d="M385.6,101.2h6l-12.1,11.1v-6.9c0,0,0-1.3,0.1-1.7c0-0.4,0.2-1.1,0.5-1.6
				C380.8,101,382.5,101.2,385.6,101.2z"/>
			<polygon fill="#898989" points="379.2,113.5 379.5,113.1 379.5,112.3 391.6,101.2 391.6,101.2 391,112.1 			"/>
			<polygon fill="#B2B2B2" points="391.6,101.2 391.6,101.2 409.6,112.9 409.6,113.1 410.2,113.6 391,112.1 			"/>
			<path fill="#3F3F3F" d="M409.6,105.3v7.7l-18-11.7h0.8l15.6,0.2C409.2,101.8,409.6,102.7,409.6,105.3z"/>
			<polygon fill="#B2B2B2" points="402.9,123.5 393.3,135.3 391,112.1 			"/>
		</g>
		<g>
			<path fill="#333333" d="M383.5,88.5h22.4c1.1,0,2,0.9,2,2l0,0c0,1.1-0.9,2-2,2h-22.4c-1.1,0-2-0.9-2-2l0,0
				C381.5,89.4,382.4,88.5,383.5,88.5z"/>
			<path fill="#333333" d="M405,86.4c-0.3-3.2-4.8-5.7-10.4-5.7c-5.5,0-10.1,2.5-10.4,5.7H405z"/>
			<path fill="#333333" d="M382.9,94.7h23.4c1.1,0,2,0.9,2,2l0,0c0,1.1-0.9,2-2,2h-23.4c-1.1,0-2-0.9-2-2l0,0
				C381,95.6,381.8,94.7,382.9,94.7z"/>
		</g>
		<rect x="392.9" y="0" fill="#333333" width="3.5" height="80.9"/>
	</g>
</g>
</svg>
