<svg id="Layer_1" enable-background="new 0 0 512 512" height="512" viewBox="0 0 512 512" width="512" xmlns="http://www.w3.org/2000/svg"><g><g clip-rule="evenodd" fill-rule="evenodd"><path d="m482.881 479.139v-300.866c0-13.742-11.267-25.008-25.008-25.008h-403.745c-13.741 0-24.98 11.266-24.98 25.008v300.865h453.733z" fill="#4a80aa"/><path d="m482.881 479.139v-300.866c0-13.742-11.267-25.008-25.008-25.008h-30.102c13.741 0 24.979 11.266 24.979 25.008v300.865h30.131z" fill="#407093"/><path d="m39.874 512h432.252c10.755 0 16.331-5.35 20.74-14.993l12.604-27.654c5.436-11.892.883-20.172-12.604-20.172h-161.885c-2.418 0-5.747 1.991-6.856 5.946-2.504 8.99-10.897 15.533-20.655 15.533h-94.94c-9.758 0-18.151-6.543-20.627-15.533-1.109-3.955-4.467-5.946-6.885-5.946h-161.885c-13.486 0-18.038 8.279-12.604 20.172l12.604 27.654c4.41 9.643 10.014 14.993 20.741 14.993z" fill="#365e7d"/><path d="m442.025 512h30.101c10.755 0 16.331-5.35 20.74-14.993l12.604-27.654c5.436-11.892.883-20.172-12.604-20.172h-30.101c13.485 0 18.038 8.279 12.604 20.172l-12.604 27.654c-4.409 9.643-10.014 14.993-20.74 14.993z" fill="#2b4d66"/><path d="m65.508 183.621h386.36c3.3 0 6.004 2.732 6.004 6.032v223.14c0 3.3-2.704 6.032-6.004 6.032h-386.36c-3.302 0-6.032-2.732-6.032-6.032v-223.14c0-3.3 2.731-6.032 6.032-6.032z" fill="#cbe2ff"/><path d="m421.74 183.621h30.129c3.3 0 6.004 2.732 6.004 6.032v223.14c0 3.3-2.704 6.032-6.004 6.032h-30.129c3.328 0 6.031-2.732 6.031-6.032v-223.14c0-3.3-2.703-6.032-6.031-6.032z" fill="#9dc6fb"/><path d="m113.077 382.889h291.223c8.222 0 14.964-6.742 14.964-14.992v-30.983c0-8.251-6.742-14.993-14.964-14.993h-291.223c-8.221 0-14.993 6.742-14.993 14.993v30.983c0 8.25 6.772 14.992 14.993 14.992z" fill="#80b4fb"/><path d="m374.17 382.889h30.13c8.222 0 14.964-6.742 14.964-14.992v-30.983c0-8.251-6.742-14.993-14.964-14.993h-30.13c8.251 0 14.994 6.742 14.994 14.993v30.983c0 8.25-6.743 14.992-14.994 14.992z" fill="#80b4fb"/><path d="m254.136 21.167-22.05-19.118c-2.931-2.532-6.259-2.476-9.104 0l-22.049 19.118c-2.788 2.42-6.26 2.477-9.104 0l-22.049-19.118c-3.13-2.703-5.918-2.76-9.104 0l-22.05 19.118c-2.787 2.42-4.552 5.605-4.552 9.959v315.263c0 3.299 2.704 6.031 6.032 6.031h237.166c3.327 0 6.03-2.732 6.03-6.031v-315.263c0-4.354-1.764-7.539-4.553-9.959l-22.048-19.118c-3.186-2.76-5.975-2.703-9.104 0l-22.05 19.118c-2.845 2.477-6.316 2.42-9.104 0l-22.05-19.118c-2.874-2.476-6.174-2.532-9.105 0l-22.049 19.118c-2.815 2.447-6.286 2.447-9.103 0z" fill="#fff6cf"/><path d="m347.17 352.42h30.103c3.327 0 6.03-2.732 6.03-6.031v-315.263c0-4.354-1.764-7.539-4.553-9.959l-22.049-19.118c-3.186-2.76-5.975-2.703-9.104 0l-10.499 9.104 11.551 10.014c2.788 2.42 4.552 5.605 4.552 9.959v315.263c0 3.298-2.73 6.031-6.031 6.031z" fill="#fff0af"/></g><path d="m289.614 82.251c3.1 2.788 3.33 7.541.569 10.613-2.788 3.101-7.539 3.356-10.612.568-.028-.028-5.206-4.779-14.168-6.316v46.915c2.902 1.138 6.003 2.248 9.246 3.414 13.229 4.666 21.225 13.6 24.752 23.899 2.219 6.572 2.59 13.656 1.28 20.484-1.28 6.743-4.182 13.258-8.478 18.862-6.258 8.081-15.391 14.169-26.8 16.132v12.15c0 4.181-3.386 7.539-7.54 7.539-4.153 0-7.539-3.358-7.539-7.539v-11.608c-4.41-.172-8.279-.598-12.12-1.536-6.061-1.508-11.693-4.154-18.862-8.849-3.499-2.276-4.467-6.914-2.191-10.413 2.276-3.471 6.941-4.439 10.413-2.162 5.719 3.727 9.958 5.774 14.226 6.827 2.59.655 5.348.969 8.535 1.11v-58.21c-.996-.428-1.963-.882-2.902-1.309-6.629-3.072-12.205-6.259-16.785-9.845-4.667-3.669-7.824-8.62-9.475-14.139-1.622-5.406-1.82-11.353-.683-17.099 1.109-5.691 3.585-11.296 7.313-16.048 4.182-5.348 9.958-9.615 17.184-11.806 1.821-.541 3.613-.968 5.349-1.31v-11.008c0-4.153 3.386-7.511 7.539-7.511 4.154 0 7.54 3.358 7.54 7.511v10.441c15.02 1.795 24.181 10.215 24.209 10.243zm-39.29 5.747c-.342.086-.711.199-1.053.313-4.069 1.224-7.311 3.613-9.674 6.629-2.219 2.817-3.669 6.201-4.381 9.674-.655 3.442-.568 6.885.37 9.929.797 2.646 2.22 4.979 4.296 6.601 2.816 2.219 6.315 4.324 10.441 6.401v-39.547zm19.347 63.616c-1.48-.512-2.901-1.025-4.268-1.537v51.383c6.258-1.65 11.322-5.32 14.909-9.957 2.844-3.699 4.778-7.995 5.603-12.434.854-4.354.626-8.819-.768-12.888-2.105-6.173-7.084-11.58-15.476-14.567z" fill="#78c2a4"/><path d="m177.917 266.982c-4.153 0-7.511-3.358-7.511-7.512 0-4.153 3.357-7.539 7.511-7.539h161.543c4.154 0 7.511 3.386 7.511 7.539s-3.356 7.512-7.511 7.512zm0 59.974c-4.153 0-7.511-3.386-7.511-7.539s3.357-7.511 7.511-7.511h126.549c4.153 0 7.539 3.357 7.539 7.511s-3.386 7.539-7.539 7.539zm0-29.986c-4.153 0-7.511-3.358-7.511-7.539 0-4.154 3.357-7.513 7.511-7.513h161.543c4.154 0 7.511 3.358 7.511 7.513 0 4.181-3.356 7.539-7.511 7.539z" fill="#dd636e"/></g></svg>