<svg height="512pt" viewBox="-9 0 512 512.00002" width="512pt" xmlns="http://www.w3.org/2000/svg"><path d="m423.722656 35.308594h44.140625v167.726562h-44.140625zm0 0" fill="#cde2dd"/><path d="m79.449219 0h353.101562v317.792969h-353.101562zm0 0" fill="#88d0ef"/><path d="m388.414062 79.449219v79.449219l-26.484374-17.65625-26.480469 17.65625v-79.449219zm0 0" fill="#ec7422"/><path d="m158.898438 194.207031v-52.964843h-158.898438v370.757812h494.34375v-317.792969zm0 0" fill="#2276bb"/><g fill="#fff"><path d="m141.242188 370.757812h-52.964844c-4.875 0-8.828125-3.953124-8.828125-8.828124v-70.621094c0-4.875 3.953125-8.824219 8.828125-8.824219h61.792968v17.652344h-52.96875v52.964843h35.3125v-17.652343h-17.65625v-17.65625h26.484376c4.875 0 8.828124 3.953125 8.828124 8.828125v35.308594c0 4.875-3.953124 8.828124-8.828124 8.828124zm0 0"/><path d="m211.863281 370.757812h-35.3125c-4.875 0-8.828125-3.953124-8.828125-8.828124v-70.621094c0-4.875 3.953125-8.824219 8.828125-8.824219h35.3125c14.613281.027344 26.453125 11.867187 26.480469 26.480469v35.3125c-.027344 14.613281-11.867188 26.453125-26.480469 26.480468zm-26.484375-17.65625h26.484375c4.875 0 8.828125-3.949218 8.828125-8.824218v-35.3125c0-4.875-3.953125-8.828125-8.828125-8.828125h-26.484375zm0 0"/><path d="m273.65625 370.757812h-17.65625v-79.449218c0-4.875 3.953125-8.824219 8.828125-8.824219h35.175781c14.691406.019531 26.597656 11.921875 26.617188 26.613281v17.390625c-.019532 14.691407-11.925782 26.59375-26.617188 26.613281h-26.347656zm0-35.308593h26.347656c4.949219-.007813 8.957032-4.015625 8.960938-8.960938v-17.390625c-.003906-4.945312-4.011719-8.953125-8.960938-8.960937h-26.347656zm0 0"/><path d="m414.898438 370.757812h-17.65625v-26.253906c-.003907-5-4.058594-9.050781-9.058594-9.054687h-26.253906v35.308593h-17.652344v-79.449218c0-4.875 3.949218-8.824219 8.824218-8.824219h35.3125c14.625.007813 26.476563 11.871094 26.464844 26.496094-.003906 6.542969-2.429687 12.851562-6.804687 17.710937 4.398437 4.890625 6.828125 11.238282 6.820312 17.8125v26.253906zm-52.96875-52.964843h26.484374c4.875 0 8.828126-3.953125 8.828126-8.828125s-3.953126-8.828125-8.828126-8.828125h-26.484374zm0 0"/></g><path d="m397.242188 70.621094c0 19.5-15.808594 35.308594-35.3125 35.308594-19.5 0-35.308594-15.808594-35.308594-35.308594s15.808594-35.3125 35.308594-35.3125c19.503906 0 35.3125 15.8125 35.3125 35.3125zm0 0" fill="#ffbf41"/></svg>