<svg height="464pt" viewBox="0 0 464 464" width="464pt" xmlns="http://www.w3.org/2000/svg"><path d="m408 112h-352c-17.671875 0-32 14.328125-32 32v304h416v-304c0-17.671875-14.328125-32-32-32zm0 0" fill="#4398d1"/><path d="m392 144h-328c-4.417969 0-8 3.582031-8 8v280h352v-272c0-8.835938-7.164062-16-16-16zm0 0" fill="#87ced9"/><path d="m408 200-232 232h232zm0 0" fill="#71c4d1"/><path d="m344 0 24.847656 27.273438 35.152344-11.195313 7.878906 36.042969 36.042969 7.878906-11.195313 35.152344 27.273438 24.847656-27.273438 24.847656 11.195313 35.152344-36.042969 7.878906-7.878906 36.042969-35.152344-11.195313-24.847656 27.273438-24.847656-27.273438-35.152344 11.195313-7.878906-36.042969-36.042969-7.878906 11.195313-35.152344-27.273438-24.847656 27.273438-24.847656-11.195313-35.152344 36.042969-7.878906 7.878906-36.042969 35.152344 11.195313zm0 0" fill="#fdb62f"/><g fill="#fd6d2f"><path d="m298.34375 154.34375 79.996094-80 11.316406 11.3125-80 80zm0 0"/><path d="m304 120c-13.253906 0-24-10.746094-24-24s10.746094-24 24-24 24 10.746094 24 24-10.746094 24-24 24zm0-32c-4.417969 0-8 3.582031-8 8s3.582031 8 8 8 8-3.582031 8-8-3.582031-8-8-8zm0 0"/><path d="m384 168c-13.253906 0-24-10.746094-24-24s10.746094-24 24-24 24 10.746094 24 24-10.746094 24-24 24zm0-32c-4.417969 0-8 3.582031-8 8s3.582031 8 8 8 8-3.582031 8-8-3.582031-8-8-8zm0 0"/></g><path d="m140.601562 334.390625-28.738281 11.65625 18.753907 37.953125h31.472656zm0 0" fill="#e0e3e6"/><path d="m240 336-99.398438-1.609375-21.480468-42.519531 78.765625-77.949219zm0 0" fill="#e0e3e6"/><path d="m89.191406 330.574219c2.164063 6.339843 6.960938 11.433593 13.15625 13.976562 6.199219 2.539063 13.191406 2.277344 19.179688-.71875l19.074218-9.441406-21.480468-42.519531-19.875 11.800781c-9.285156 5.464844-13.480469 16.6875-10.054688 26.902344zm0 0" fill="#e3584b"/><path d="m241.28125 266.039062 26.457031-9.195312 5.246094 15.105469-26.453125 9.195312zm0 0" fill="#5eb3d1"/><path d="m220.492188 212.855469 17.644531-18.390625 11.546875 11.078125-17.648438 18.390625zm0 0" fill="#5eb3d1"/><path d="m264 320h24v16h-24zm0 0" fill="#5eb3d1"/><path d="m312 272h152v96h-152zm0 0" fill="#e3584b"/><path d="m336 296h32v16h-32zm0 0" fill="#c9433c"/><path d="m384 296h56v16h-56zm0 0" fill="#c9433c"/><path d="m336 328h104v16h-104zm0 0" fill="#c9433c"/><path d="m0 176h120v64h-120zm0 0" fill="#fd6d2f"/><path d="m24 200h16v16h-16zm0 0" fill="#e3584b"/><path d="m56 200h40v16h-40zm0 0" fill="#e3584b"/><path d="m440 464h-416c-13.253906 0-24-10.746094-24-24v-24h183.054688c5.484374 0 10.496093 3.097656 12.945312 8s7.460938 8 12.945312 8h46.109376c5.484374 0 10.496093-3.097656 12.945312-8s7.460938-8 12.945312-8h183.054688v24c0 13.253906-10.746094 24-24 24zm0 0" fill="#d6d9db"/><path d="m120 192v48h-64v16h80v-64zm0 0" fill="#71c4d1"/><path d="m24 240h32v16h-32zm0 0" fill="#3e8cc7"/><path d="m408 368h32v16h-32zm0 0" fill="#3e8cc7"/></svg>