<svg id="Capa_1" enable-background="new 0 0 512 512" height="512" viewBox="0 0 512 512" width="512" xmlns="http://www.w3.org/2000/svg"><g><path d="m237.457 278.148h30.905v189.296h-30.905z" fill="#bfbfbf"/><path d="m486.245 278.472h-460.49c-14.224 0-25.755-11.53-25.755-25.754v-200.435c0-14.224 11.531-25.755 25.755-25.755h460.491c14.224 0 25.755 11.531 25.755 25.755v200.435c-.001 14.224-11.532 25.754-25.756 25.754z" fill="#f47c7c"/><path d="m322.447 485.472h-139.075c-9.957 0-18.028-8.071-18.028-18.028 0-9.957 8.071-18.028 18.028-18.028h139.074c9.957 0 18.028 8.071 18.028 18.028.001 9.956-8.071 18.028-18.027 18.028z" fill="#838383"/><g fill="#fff2e2"><path d="m164.368 125.878c5.112 0 9.272 4.181 9.272 9.319 0 4.267 3.459 7.726 7.726 7.726s7.726-3.459 7.726-7.726c0-13.659-11.091-24.772-24.724-24.772s-24.724 11.113-24.724 24.772v.302c0 13.659 11.091 24.772 24.724 24.772 5.112 0 9.272 4.181 9.272 9.319v.302c0 5.139-4.159 9.319-9.272 9.319s-9.272-4.181-9.272-9.319c0-4.267-3.459-7.726-7.726-7.726s-7.726 3.459-7.726 7.726c0 13.659 11.091 24.772 24.724 24.772s24.724-11.113 24.724-24.772v-.302c0-13.659-11.091-24.772-24.724-24.772-5.112 0-9.272-4.181-9.272-9.319v-.302c.001-5.139 4.16-9.319 9.272-9.319z"/><path d="m51.111 110.425h-16.187c-6.901 0-12.515 5.62-12.515 12.529v29.561c0 .01-.002.02-.002.03v34.394c0 4.267 3.459 7.726 7.726 7.726s7.726-3.459 7.726-7.726v-26.668h6.544l8.805 28.918c1.015 3.332 4.077 5.478 7.389 5.478.745 0 1.503-.109 2.253-.337 4.082-1.243 6.384-5.56 5.141-9.642l-8.045-26.424c7.026-3.332 11.91-10.484 11.91-18.776v-8.28c0-11.46-9.306-20.783-20.745-20.783zm5.292 29.063c0 2.939-2.374 5.33-5.293 5.33h-.895c-.029 0-.058 0-.087 0h-12.266v-18.941h13.249c2.919 0 5.293 2.391 5.293 5.33v8.281z"/><path d="m120.903 125.878c4.267 0 7.726-3.459 7.726-7.726s-3.459-7.726-7.726-7.726h-30.906c-4.267 0-7.726 3.459-7.726 7.726v68.787c0 4.267 3.459 7.726 7.726 7.726h30.905c4.267 0 7.726-3.459 7.726-7.726s-3.459-7.726-7.726-7.726h-23.178v-13.873h23.179c4.267 0 7.726-3.459 7.726-7.726s-3.459-7.726-7.726-7.726h-23.179v-24.009h23.179z"/><path d="m240.261 125.878c4.267 0 7.726-3.459 7.726-7.726s-3.459-7.726-7.726-7.726h-30.905c-4.267 0-7.726 3.459-7.726 7.726v68.787c0 4.267 3.459 7.726 7.726 7.726h30.905c4.267 0 7.726-3.459 7.726-7.726s-3.459-7.726-7.726-7.726h-23.179v-13.873h23.179c4.267 0 7.726-3.459 7.726-7.726s-3.459-7.726-7.726-7.726h-23.179v-24.009h23.179z"/><path d="m287.718 110.425h-16.187c-6.901 0-12.515 5.62-12.515 12.529v29.561c0 .01-.001.02-.001.03v34.394c0 4.267 3.459 7.726 7.726 7.726s7.726-3.459 7.726-7.726v-26.668h6.544l8.805 28.918c1.015 3.332 4.077 5.478 7.389 5.478.745 0 1.503-.109 2.253-.337 4.082-1.243 6.384-5.56 5.141-9.642l-8.045-26.424c7.026-3.332 11.91-10.484 11.91-18.776v-8.28c-.001-11.46-9.307-20.783-20.746-20.783zm5.293 29.063c0 2.939-2.374 5.33-5.293 5.33h-.895c-.029 0-.058 0-.087 0h-12.267v-18.941h13.249c2.919 0 5.293 2.391 5.293 5.33z"/><path d="m368.608 110.797c-4.063-1.307-8.415.925-9.723 4.987l-14.794 45.946-14.794-45.946c-1.308-4.062-5.657-6.294-9.723-4.987-4.062 1.308-6.294 5.661-4.986 9.723l22.149 68.787c1.028 3.193 4 5.358 7.355 5.358s6.326-2.165 7.355-5.358l22.149-68.787c1.306-4.063-.926-8.415-4.988-9.723z"/><path d="m421.268 125.878c4.267 0 7.726-3.459 7.726-7.726s-3.459-7.726-7.726-7.726h-30.905c-4.267 0-7.726 3.459-7.726 7.726v68.787c0 4.267 3.459 7.726 7.726 7.726h30.905c4.267 0 7.726-3.459 7.726-7.726s-3.459-7.726-7.726-7.726h-23.179v-13.873h23.179c4.267 0 7.726-3.459 7.726-7.726s-3.459-7.726-7.726-7.726h-23.179v-24.009h23.179z"/></g><path d="m486.245 26.528h-37.86c14.224 0 25.755 11.531 25.755 25.755v200.435c0 14.224-11.531 25.755-25.755 25.755h37.86c14.224 0 25.755-11.531 25.755-25.755v-200.435c0-14.224-11.531-25.755-25.755-25.755z" fill="#ee6161"/><path d="m449.97 110.425c-5.418 0-9.826 4.408-9.826 9.826v64.588c0 5.418 4.408 9.826 9.826 9.826 21.848 0 39.623-17.775 39.623-39.623v-4.994c0-21.849-17.775-39.623-39.623-39.623zm24.17 44.617c0 11.391-7.921 20.966-18.543 23.509v-52.012c10.623 2.543 18.543 12.118 18.543 23.509z" fill="#fff2e2"/><path d="m474.14 118.683v31.365 4.994 31.365c9.389-7.252 15.453-18.611 15.453-31.365v-4.994c0-12.755-6.064-24.113-15.453-31.365z" fill="#fee8c7"/><path d="m237.457 278.148h30.905v66.954h-30.905z" fill="#acacac"/><path d="m311.63 315.9h-117.441c-4.552 0-8.241-3.69-8.241-8.241v-71.082c0-4.552 3.69-8.241 8.241-8.241h117.441c4.552 0 8.241 3.69 8.241 8.241v71.082c0 4.551-3.69 8.241-8.241 8.241z" fill="#e2e2e2"/><path d="m322.447 449.415h-35.042c9.957 0 18.028 8.071 18.028 18.028s-8.071 18.028-18.028 18.028h35.042c9.957 0 18.028-8.071 18.028-18.028 0-9.956-8.072-18.028-18.028-18.028z" fill="#5a5a5a"/></g></svg>