<svg id="Capa_1" enable-background="new 0 0 512 512" height="512" viewBox="0 0 512 512" width="512" xmlns="http://www.w3.org/2000/svg"><g><path d="m271 481.5v-481h-30v481h-60v30c11.515 0 157.508 0 150 0v-30z" fill="#f3f5f9"/><path d="m256.139.5v511c39.49 0 78.851 0 74.861 0v-30h-60v-481z" fill="#e1e6f0"/><g><path d="m30 45.5v300h452v-300z" fill="#ff7040"/></g><path d="m256.139 45.5h225.861v300h-225.861z" fill="#f24b3c"/><g id="Slideshow_2_"><g><path d="m211 264.772v-138.544l138.545 69.272z" fill="#f3f5f9"/></g></g><g><g><path d="m0 30.5h512v30h-512z" fill="#293e66"/></g></g><g><g><path d="m0 330.5h512v30h-512z" fill="#293e66"/></g></g><path d="m256.139 330.5h255.861v30h-255.861z" fill="#1e2533"/><path d="m256.139 30.5h255.861v30h-255.861z" fill="#1e2533"/><path d="m256.139 242.203 93.406-46.703-93.406-46.703z" fill="#e1e6f0"/></g></svg>